<svg width="48" height="45" viewBox="0 0 48 45" fill="none" xmlns="http://www.w3.org/2000/svg">
<path d="M16 33.75L24 28.0312L32 33.75L29 24.4688L37 19.125H27.2L24 9.375L20.8 19.125H11L19 24.4688L16 33.75ZM24 41.25C21.2333 41.25 18.6333 40.7578 16.2 39.7734C13.7667 38.7891 11.65 37.4531 9.85 35.7656C8.05 34.0781 6.625 32.0938 5.575 29.8125C4.525 27.5313 4 25.0937 4 22.5C4 19.9063 4.525 17.4687 5.575 15.1875C6.625 12.9062 8.05 10.9219 9.85 9.23437C11.65 7.54687 13.7667 6.21094 16.2 5.22656C18.6333 4.24219 21.2333 3.75 24 3.75C26.7667 3.75 29.3667 4.24219 31.8 5.22656C34.2333 6.21094 36.35 7.54687 38.15 9.23437C39.95 10.9219 41.375 12.9062 42.425 15.1875C43.475 17.4687 44 19.9063 44 22.5C44 25.0937 43.475 27.5313 42.425 29.8125C41.375 32.0938 39.95 34.0781 38.15 35.7656C36.35 37.4531 34.2333 38.7891 31.8 39.7734C29.3667 40.7578 26.7667 41.25 24 41.25ZM24 37.5C28.4667 37.5 32.25 36.0469 35.35 33.1406C38.45 30.2344 40 26.6875 40 22.5C40 18.3125 38.45 14.7656 35.35 11.8594C32.25 8.95313 28.4667 7.5 24 7.5C19.5333 7.5 15.75 8.95313 12.65 11.8594C9.55 14.7656 8 18.3125 8 22.5C8 26.6875 9.55 30.2344 12.65 33.1406C15.75 36.0469 19.5333 37.5 24 37.5Z" fill="#1D1B20"/>
</svg>
