<svg viewBox="0 0 1440 1024" fill="none" xmlns="http://www.w3.org/2000/svg">

<path d="M935.637 120.429C800.226 230.064 741.742 358.829 743.711 444.862L814.649 672.9C991.386 726.498 1287.95 933.799 1321.64 798.982C1355.32 664.165 1322.66 500.381 1203.28 450.969C1150.81 177.85 1035.51 39.5706 935.637 120.429Z" fill="#91DEC3"/>
<path d="M1187.61 606.457C1201.9 440.615 1113.74 368.041 1042.93 320.973C981.405 293.11 868.39 108.768 747.678 136.156C591.498 171.592 645.928 347.802 558.925 400.048C424.605 480.707 515.758 854.298 666.281 876.918C786.21 894.941 888.568 775.233 888.834 778.861C889.099 782.489 1170.54 804.676 1187.61 606.457Z" fill="#447DF0"/>
<path d="M1140.51 652.111C1160.87 594.366 1112.03 539.577 1085.07 519.4C1042.2 471.627 936.094 543.072 860.539 507.575C806.305 482.095 696.547 603.862 694.175 654.158C691.804 704.453 773.524 778.177 775.831 781.782C778.138 785.387 769.087 856.215 839.346 914.408C900.67 965.199 988.109 952.351 1021.64 930.899C1069.95 899.99 1073.22 801.865 1069 767.473C1062.47 714.237 1115.05 724.293 1140.51 652.111Z" stroke="#ECEF38" stroke-width="7"/>
<path d="M1140.51 652.111C1160.87 594.366 1112.03 539.577 1085.07 519.4C1042.2 471.627 936.094 543.072 860.539 507.575C806.305 482.095 696.547 603.862 694.175 654.158C691.804 704.453 773.524 778.177 775.831 781.782C778.138 785.387 769.087 856.215 839.346 914.408C900.67 965.199 988.109 952.351 1021.64 930.899C1069.95 899.99 1073.22 801.865 1069 767.473C1062.47 714.237 1115.05 724.293 1140.51 652.111Z" stroke="#FFE435" stroke-opacity="0.2" stroke-width="7"/>
</svg>