<svg width="44" height="44" viewBox="0 0 44 44" fill="none" xmlns="http://www.w3.org/2000/svg">
<path d="M22 0.5C33.8741 0.5 43.5 10.1259 43.5 22C43.5 33.8741 33.8741 43.5 22 43.5C10.1259 43.5 0.5 33.8741 0.5 22C0.5 10.1259 10.1259 0.5 22 0.5Z" fill="#2C2C2C"/>
<path d="M22 0.5C33.8741 0.5 43.5 10.1259 43.5 22C43.5 33.8741 33.8741 43.5 22 43.5C10.1259 43.5 0.5 33.8741 0.5 22C0.5 10.1259 10.1259 0.5 22 0.5Z" stroke="#2C2C2C" stroke-linecap="round"/>
<path d="M21.9993 13.6667L24.5743 18.8834L30.3327 19.7251L26.166 23.7834L27.1493 29.5167L21.9993 26.8084L16.8493 29.5167L17.8327 23.7834L13.666 19.7251L19.4243 18.8834L21.9993 13.6667Z" stroke="#F5F5F5" stroke-width="2" stroke-linecap="round" stroke-linejoin="round"/>
</svg>
