<svg width="29" height="29" viewBox="0 0 29 29" fill="none" xmlns="http://www.w3.org/2000/svg">
<g clip-path="url(#clip0_181_354)">
<path d="M13.292 4.83328H4.83366C4.19272 4.83328 3.57803 5.08789 3.12482 5.54111C2.6716 5.99432 2.41699 6.60901 2.41699 7.24995V24.1666C2.41699 24.8076 2.6716 25.4222 3.12482 25.8755C3.57803 26.3287 4.19272 26.5833 4.83366 26.5833H21.7503C22.3913 26.5833 23.006 26.3287 23.4592 25.8755C23.9124 25.4222 24.167 24.8076 24.167 24.1666V15.7083M22.3545 3.02078C22.8352 2.54008 23.4872 2.27002 24.167 2.27002C24.8468 2.27002 25.4988 2.54008 25.9795 3.02078C26.4602 3.50149 26.7303 4.15346 26.7303 4.83328C26.7303 5.5131 26.4602 6.16508 25.9795 6.64578L14.5003 18.1249L9.66699 19.3333L10.8753 14.4999L22.3545 3.02078Z" stroke="#1E1E1E" stroke-width="4" stroke-linecap="round" stroke-linejoin="round"/>
</g>
<defs>
<clipPath id="clip0_181_354">
<rect width="29" height="29" fill="white"/>
</clipPath>
</defs>
</svg>
