<svg width="32" height="32" viewBox="0 0 32 32" fill="none" xmlns="http://www.w3.org/2000/svg">
<path d="M16 15.9998C16.7333 15.9998 17.3611 15.7387 17.8833 15.2165C18.4056 14.6943 18.6667 14.0665 18.6667 13.3332C18.6667 12.5998 18.4056 11.9721 17.8833 11.4498C17.3611 10.9276 16.7333 10.6665 16 10.6665C15.2667 10.6665 14.6389 10.9276 14.1167 11.4498C13.5944 11.9721 13.3333 12.5998 13.3333 13.3332C13.3333 14.0665 13.5944 14.6943 14.1167 15.2165C14.6389 15.7387 15.2667 15.9998 16 15.9998ZM16 25.7998C18.7111 23.3109 20.7222 21.0498 22.0333 19.0165C23.3444 16.9832 24 15.1776 24 13.5998C24 11.1776 23.2278 9.19428 21.6833 7.64984C20.1389 6.10539 18.2444 5.33317 16 5.33317C13.7556 5.33317 11.8611 6.10539 10.3167 7.64984C8.77222 9.19428 8 11.1776 8 13.5998C8 15.1776 8.65556 16.9832 9.96667 19.0165C11.2778 21.0498 13.2889 23.3109 16 25.7998ZM16 29.3332C12.4222 26.2887 9.75 23.4609 7.98333 20.8498C6.21667 18.2387 5.33333 15.8221 5.33333 13.5998C5.33333 10.2665 6.40556 7.61095 8.55 5.63317C10.6944 3.65539 13.1778 2.6665 16 2.6665C18.8222 2.6665 21.3056 3.65539 23.45 5.63317C25.5944 7.61095 26.6667 10.2665 26.6667 13.5998C26.6667 15.8221 25.7833 18.2387 24.0167 20.8498C22.25 23.4609 19.5778 26.2887 16 29.3332Z" fill="white"/>
</svg>
