<svg width="31" height="41" viewBox="0 0 31 41" fill="none" xmlns="http://www.w3.org/2000/svg">
<path d="M29.9998 8.6597V36.7025C29.9998 38.9117 28.209 40.7025 25.9998 40.7025H4C1.79086 40.7025 0 38.9117 0 36.7025V4.70252C0 2.49338 1.79086 0.702515 4 0.702515H21.3367L29.9998 8.6597Z" fill="#F04438"/>
<g filter="url(#filter0_d_2001_2738)">
<path d="M29.9998 8.6597H22.3367C21.7844 8.6597 21.3367 8.21199 21.3367 7.6597V0.702515L29.9998 8.6597Z" fill="#FECDCA"/>
</g>
<path d="M11.8344 26.4185C11.8344 26.7845 11.7504 27.1205 11.5824 27.4265C11.4144 27.7265 11.1564 27.9695 10.8084 28.1555C10.4604 28.3415 10.0284 28.4345 9.51243 28.4345H8.55843V30.7025H7.01943V24.3845H9.51243C10.0164 24.3845 10.4424 24.4715 10.7904 24.6455C11.1384 24.8195 11.3994 25.0595 11.5734 25.3655C11.7474 25.6715 11.8344 26.0225 11.8344 26.4185ZM9.39543 27.2105C9.68943 27.2105 9.90843 27.1415 10.0524 27.0035C10.1964 26.8655 10.2684 26.6705 10.2684 26.4185C10.2684 26.1665 10.1964 25.9715 10.0524 25.8335C9.90843 25.6955 9.68943 25.6265 9.39543 25.6265H8.55843V27.2105H9.39543ZM15.0026 24.3845C15.6686 24.3845 16.2506 24.5165 16.7486 24.7805C17.2466 25.0445 17.6306 25.4165 17.9006 25.8965C18.1766 26.3705 18.3146 26.9195 18.3146 27.5435C18.3146 28.1615 18.1766 28.7105 17.9006 29.1905C17.6306 29.6705 17.2436 30.0425 16.7396 30.3065C16.2416 30.5705 15.6626 30.7025 15.0026 30.7025H12.6356V24.3845H15.0026ZM14.9036 29.3705C15.4856 29.3705 15.9386 29.2115 16.2626 28.8935C16.5866 28.5755 16.7486 28.1255 16.7486 27.5435C16.7486 26.9615 16.5866 26.5085 16.2626 26.1845C15.9386 25.8605 15.4856 25.6985 14.9036 25.6985H14.1746V29.3705H14.9036ZM23.2877 24.3845V25.6175H20.7137V26.9495H22.6397V28.1465H20.7137V30.7025H19.1747V24.3845H23.2877Z" fill="white"/>
<defs>
<filter id="filter0_d_2001_2738" x="18.3367" y="-0.297485" width="12.6631" height="11.9572" filterUnits="userSpaceOnUse" color-interpolation-filters="sRGB">
<feFlood flood-opacity="0" result="BackgroundImageFix"/>
<feColorMatrix in="SourceAlpha" type="matrix" values="0 0 0 0 0 0 0 0 0 0 0 0 0 0 0 0 0 0 127 0" result="hardAlpha"/>
<feOffset dx="-1" dy="1"/>
<feGaussianBlur stdDeviation="1"/>
<feComposite in2="hardAlpha" operator="out"/>
<feColorMatrix type="matrix" values="0 0 0 0 0 0 0 0 0 0 0 0 0 0 0 0 0 0 0.2 0"/>
<feBlend mode="normal" in2="BackgroundImageFix" result="effect1_dropShadow_2001_2738"/>
<feBlend mode="normal" in="SourceGraphic" in2="effect1_dropShadow_2001_2738" result="shape"/>
</filter>
</defs>
</svg>